<mxfile host="app.diagrams.net" agent="Mozilla/5.0 (X11; Linux x86_64) AppleWebKit/537.36 (KHTML, like Gecko) Chrome/137.0.0.0 Safari/537.36" version="27.1.5">
  <diagram name="Page-1" id="tWHpMIpp-yD2-w-GdZ_C">
    <mxGraphModel dx="1215" dy="403" grid="0" gridSize="10" guides="1" tooltips="1" connect="1" arrows="1" fold="1" page="0" pageScale="1" pageWidth="850" pageHeight="1100" math="0" shadow="0">
      <root>
        <mxCell id="0" />
        <mxCell id="1" parent="0" />
        <mxCell id="gqLY5WaF7parTcAeaoHh-150" value="" style="endArrow=none;dashed=1;html=1;rounded=0;entryX=0.5;entryY=1;entryDx=0;entryDy=0;" edge="1" parent="1" source="gqLY5WaF7parTcAeaoHh-163">
          <mxGeometry width="50" height="50" relative="1" as="geometry">
            <mxPoint x="979.66" y="2280" as="sourcePoint" />
            <mxPoint x="979.66" y="1400" as="targetPoint" />
          </mxGeometry>
        </mxCell>
        <mxCell id="gqLY5WaF7parTcAeaoHh-1" value="Игрок" style="shape=umlActor;verticalLabelPosition=bottom;verticalAlign=top;html=1;" vertex="1" parent="1">
          <mxGeometry x="80" y="280" width="30" height="60" as="geometry" />
        </mxCell>
        <mxCell id="gqLY5WaF7parTcAeaoHh-3" value="" style="rounded=0;whiteSpace=wrap;html=1;" vertex="1" parent="1">
          <mxGeometry x="160" width="470" height="570" as="geometry" />
        </mxCell>
        <mxCell id="gqLY5WaF7parTcAeaoHh-7" value="Перемещение по локации" style="ellipse;whiteSpace=wrap;html=1;" vertex="1" parent="1">
          <mxGeometry x="345" y="150" width="120" height="50" as="geometry" />
        </mxCell>
        <mxCell id="gqLY5WaF7parTcAeaoHh-8" value="Убийство монстров" style="ellipse;whiteSpace=wrap;html=1;" vertex="1" parent="1">
          <mxGeometry x="360" y="300" width="120" height="50" as="geometry" />
        </mxCell>
        <mxCell id="gqLY5WaF7parTcAeaoHh-9" value="Повышение характеристик" style="ellipse;whiteSpace=wrap;html=1;" vertex="1" parent="1">
          <mxGeometry x="420" y="480" width="120" height="50" as="geometry" />
        </mxCell>
        <mxCell id="gqLY5WaF7parTcAeaoHh-13" style="edgeStyle=orthogonalEdgeStyle;rounded=0;orthogonalLoop=1;jettySize=auto;html=1;entryX=0.5;entryY=1;entryDx=0;entryDy=0;" edge="1" parent="1" source="gqLY5WaF7parTcAeaoHh-10" target="gqLY5WaF7parTcAeaoHh-7">
          <mxGeometry relative="1" as="geometry" />
        </mxCell>
        <mxCell id="gqLY5WaF7parTcAeaoHh-10" value="Переход на следующую локацию" style="ellipse;whiteSpace=wrap;html=1;" vertex="1" parent="1">
          <mxGeometry x="375" y="230" width="120" height="50" as="geometry" />
        </mxCell>
        <mxCell id="gqLY5WaF7parTcAeaoHh-15" value="" style="endArrow=none;html=1;rounded=0;entryX=0;entryY=0.5;entryDx=0;entryDy=0;exitX=1;exitY=0.3333333333333333;exitDx=0;exitDy=0;exitPerimeter=0;" edge="1" parent="1" source="gqLY5WaF7parTcAeaoHh-1" target="gqLY5WaF7parTcAeaoHh-7">
          <mxGeometry width="50" height="50" relative="1" as="geometry">
            <mxPoint x="380" y="330" as="sourcePoint" />
            <mxPoint x="430" y="280" as="targetPoint" />
          </mxGeometry>
        </mxCell>
        <mxCell id="gqLY5WaF7parTcAeaoHh-17" value="" style="endArrow=none;html=1;rounded=0;entryX=0;entryY=0.5;entryDx=0;entryDy=0;exitX=1;exitY=0.3333333333333333;exitDx=0;exitDy=0;exitPerimeter=0;" edge="1" parent="1" source="gqLY5WaF7parTcAeaoHh-1" target="gqLY5WaF7parTcAeaoHh-8">
          <mxGeometry width="50" height="50" relative="1" as="geometry">
            <mxPoint x="150" y="385" as="sourcePoint" />
            <mxPoint x="310" y="340" as="targetPoint" />
          </mxGeometry>
        </mxCell>
        <mxCell id="gqLY5WaF7parTcAeaoHh-19" value="Повышение уровня" style="ellipse;whiteSpace=wrap;html=1;" vertex="1" parent="1">
          <mxGeometry x="480" y="390" width="120" height="50" as="geometry" />
        </mxCell>
        <mxCell id="gqLY5WaF7parTcAeaoHh-21" value="Использование предметов" style="ellipse;whiteSpace=wrap;html=1;" vertex="1" parent="1">
          <mxGeometry x="225" y="490" width="120" height="50" as="geometry" />
        </mxCell>
        <mxCell id="gqLY5WaF7parTcAeaoHh-22" value="" style="endArrow=none;html=1;rounded=0;entryX=0.5;entryY=0;entryDx=0;entryDy=0;" edge="1" parent="1" target="gqLY5WaF7parTcAeaoHh-21">
          <mxGeometry width="50" height="50" relative="1" as="geometry">
            <mxPoint x="110" y="300" as="sourcePoint" />
            <mxPoint x="455" y="585" as="targetPoint" />
          </mxGeometry>
        </mxCell>
        <mxCell id="gqLY5WaF7parTcAeaoHh-24" value="extend" style="endArrow=open;endSize=12;dashed=1;html=1;rounded=0;exitX=0.5;exitY=0;exitDx=0;exitDy=0;entryX=0.5;entryY=1;entryDx=0;entryDy=0;" edge="1" parent="1" source="gqLY5WaF7parTcAeaoHh-19" target="gqLY5WaF7parTcAeaoHh-8">
          <mxGeometry width="160" relative="1" as="geometry">
            <mxPoint x="330" y="350" as="sourcePoint" />
            <mxPoint x="490" y="350" as="targetPoint" />
          </mxGeometry>
        </mxCell>
        <mxCell id="gqLY5WaF7parTcAeaoHh-26" value="include" style="endArrow=open;endSize=12;dashed=1;html=1;rounded=0;exitX=1;exitY=0.5;exitDx=0;exitDy=0;entryX=0;entryY=0.5;entryDx=0;entryDy=0;" edge="1" parent="1" source="gqLY5WaF7parTcAeaoHh-21" target="gqLY5WaF7parTcAeaoHh-9">
          <mxGeometry x="-0.0059" width="160" relative="1" as="geometry">
            <mxPoint x="560" y="470" as="sourcePoint" />
            <mxPoint x="490" y="520" as="targetPoint" />
            <mxPoint as="offset" />
          </mxGeometry>
        </mxCell>
        <mxCell id="gqLY5WaF7parTcAeaoHh-27" value="Прокачка" style="ellipse;whiteSpace=wrap;html=1;" vertex="1" parent="1">
          <mxGeometry x="280" y="380" width="120" height="50" as="geometry" />
        </mxCell>
        <mxCell id="gqLY5WaF7parTcAeaoHh-29" value="include" style="endArrow=open;endSize=12;dashed=1;html=1;rounded=0;exitX=1;exitY=1;exitDx=0;exitDy=0;entryX=0;entryY=0;entryDx=0;entryDy=0;" edge="1" parent="1" source="gqLY5WaF7parTcAeaoHh-27" target="gqLY5WaF7parTcAeaoHh-9">
          <mxGeometry x="-0.0059" width="160" relative="1" as="geometry">
            <mxPoint x="360" y="510" as="sourcePoint" />
            <mxPoint x="425" y="510" as="targetPoint" />
            <mxPoint as="offset" />
          </mxGeometry>
        </mxCell>
        <mxCell id="gqLY5WaF7parTcAeaoHh-30" value="extend" style="endArrow=open;endSize=12;dashed=1;html=1;rounded=0;exitX=1;exitY=0.5;exitDx=0;exitDy=0;entryX=0;entryY=0.5;entryDx=0;entryDy=0;" edge="1" parent="1" source="gqLY5WaF7parTcAeaoHh-27" target="gqLY5WaF7parTcAeaoHh-19">
          <mxGeometry width="160" relative="1" as="geometry">
            <mxPoint x="595" y="470" as="sourcePoint" />
            <mxPoint x="490" y="440" as="targetPoint" />
          </mxGeometry>
        </mxCell>
        <mxCell id="gqLY5WaF7parTcAeaoHh-31" value="" style="endArrow=none;html=1;rounded=0;entryX=0;entryY=0.5;entryDx=0;entryDy=0;exitX=1;exitY=0.3333333333333333;exitDx=0;exitDy=0;exitPerimeter=0;" edge="1" parent="1" source="gqLY5WaF7parTcAeaoHh-1" target="gqLY5WaF7parTcAeaoHh-27">
          <mxGeometry width="50" height="50" relative="1" as="geometry">
            <mxPoint x="370" y="250" as="sourcePoint" />
            <mxPoint x="635" y="285" as="targetPoint" />
          </mxGeometry>
        </mxCell>
        <mxCell id="gqLY5WaF7parTcAeaoHh-33" value="Генерация карты" style="ellipse;whiteSpace=wrap;html=1;" vertex="1" parent="1">
          <mxGeometry x="250" y="60" width="120" height="50" as="geometry" />
        </mxCell>
        <mxCell id="gqLY5WaF7parTcAeaoHh-35" value="" style="endArrow=none;html=1;rounded=0;entryX=0;entryY=1;entryDx=0;entryDy=0;" edge="1" parent="1" target="gqLY5WaF7parTcAeaoHh-33">
          <mxGeometry width="50" height="50" relative="1" as="geometry">
            <mxPoint x="110" y="300" as="sourcePoint" />
            <mxPoint x="555" y="250" as="targetPoint" />
          </mxGeometry>
        </mxCell>
        <mxCell id="gqLY5WaF7parTcAeaoHh-36" value="Загрузка собственной карты" style="ellipse;whiteSpace=wrap;html=1;" vertex="1" parent="1">
          <mxGeometry x="440" y="60" width="120" height="50" as="geometry" />
        </mxCell>
        <mxCell id="gqLY5WaF7parTcAeaoHh-37" value="extend" style="endArrow=open;endSize=12;dashed=1;html=1;rounded=0;exitX=0;exitY=0.5;exitDx=0;exitDy=0;entryX=1;entryY=0.5;entryDx=0;entryDy=0;" edge="1" parent="1" source="gqLY5WaF7parTcAeaoHh-36" target="gqLY5WaF7parTcAeaoHh-33">
          <mxGeometry width="160" relative="1" as="geometry">
            <mxPoint x="595" y="400" as="sourcePoint" />
            <mxPoint x="490" y="370" as="targetPoint" />
          </mxGeometry>
        </mxCell>
        <mxCell id="gqLY5WaF7parTcAeaoHh-43" value="&lt;p style=&quot;margin:0px;margin-top:6px;text-align:center;&quot;&gt;&lt;b&gt;&amp;lt;&amp;lt;subsystem&amp;gt;&amp;gt; Frontend&lt;/b&gt;&lt;/p&gt;&lt;hr size=&quot;1&quot; style=&quot;border-style:solid;&quot;&gt;&lt;p style=&quot;margin:0px;margin-left:8px;&quot;&gt;&lt;br&gt;&lt;/p&gt;" style="align=left;overflow=fill;html=1;dropTarget=0;whiteSpace=wrap;" vertex="1" parent="1">
          <mxGeometry y="740" width="450" height="440" as="geometry" />
        </mxCell>
        <mxCell id="gqLY5WaF7parTcAeaoHh-44" value="" style="shape=component;jettyWidth=8;jettyHeight=4;" vertex="1" parent="gqLY5WaF7parTcAeaoHh-43">
          <mxGeometry x="1" width="20" height="20" relative="1" as="geometry">
            <mxPoint x="-24" y="4" as="offset" />
          </mxGeometry>
        </mxCell>
        <mxCell id="gqLY5WaF7parTcAeaoHh-54" value="&lt;p style=&quot;margin:0px;margin-top:6px;text-align:center;&quot;&gt;&lt;b&gt;App&lt;/b&gt;&lt;/p&gt;&lt;hr size=&quot;1&quot; style=&quot;border-style:solid;&quot;&gt;&lt;p style=&quot;margin:0px;margin-left:8px;&quot;&gt;&lt;br&gt;&lt;/p&gt;" style="align=left;overflow=fill;html=1;dropTarget=0;whiteSpace=wrap;" vertex="1" parent="1">
          <mxGeometry x="45" y="800" width="365" height="340" as="geometry" />
        </mxCell>
        <mxCell id="gqLY5WaF7parTcAeaoHh-55" value="" style="shape=component;jettyWidth=8;jettyHeight=4;" vertex="1" parent="gqLY5WaF7parTcAeaoHh-54">
          <mxGeometry x="1" width="20" height="20" relative="1" as="geometry">
            <mxPoint x="-24" y="4" as="offset" />
          </mxGeometry>
        </mxCell>
        <mxCell id="gqLY5WaF7parTcAeaoHh-49" value="&lt;b&gt;Inventory&lt;/b&gt;" style="html=1;dropTarget=0;whiteSpace=wrap;" vertex="1" parent="1">
          <mxGeometry x="80" y="1040" width="90" height="70" as="geometry" />
        </mxCell>
        <mxCell id="gqLY5WaF7parTcAeaoHh-50" value="" style="shape=module;jettyWidth=8;jettyHeight=4;" vertex="1" parent="gqLY5WaF7parTcAeaoHh-49">
          <mxGeometry x="1" width="20" height="20" relative="1" as="geometry">
            <mxPoint x="-27" y="7" as="offset" />
          </mxGeometry>
        </mxCell>
        <mxCell id="gqLY5WaF7parTcAeaoHh-56" value="&lt;p style=&quot;margin:0px;margin-top:6px;text-align:center;&quot;&gt;&lt;b&gt;Game Field&lt;/b&gt;&lt;/p&gt;&lt;hr size=&quot;1&quot; style=&quot;border-style:solid;&quot;&gt;&lt;p style=&quot;margin:0px;margin-left:8px;&quot;&gt;&lt;br&gt;&lt;/p&gt;" style="align=left;overflow=fill;html=1;dropTarget=0;whiteSpace=wrap;" vertex="1" parent="1">
          <mxGeometry x="80" y="850" width="290" height="160" as="geometry" />
        </mxCell>
        <mxCell id="gqLY5WaF7parTcAeaoHh-57" value="" style="shape=component;jettyWidth=8;jettyHeight=4;" vertex="1" parent="gqLY5WaF7parTcAeaoHh-56">
          <mxGeometry x="1" width="20" height="20" relative="1" as="geometry">
            <mxPoint x="-24" y="4" as="offset" />
          </mxGeometry>
        </mxCell>
        <mxCell id="gqLY5WaF7parTcAeaoHh-51" value="&lt;b&gt;Texture Manager&lt;/b&gt;" style="html=1;dropTarget=0;whiteSpace=wrap;" vertex="1" parent="1">
          <mxGeometry x="145" y="935" width="160" height="50" as="geometry" />
        </mxCell>
        <mxCell id="gqLY5WaF7parTcAeaoHh-52" value="" style="shape=module;jettyWidth=8;jettyHeight=4;" vertex="1" parent="gqLY5WaF7parTcAeaoHh-51">
          <mxGeometry x="1" width="20" height="20" relative="1" as="geometry">
            <mxPoint x="-27" y="7" as="offset" />
          </mxGeometry>
        </mxCell>
        <mxCell id="gqLY5WaF7parTcAeaoHh-58" value="&lt;p style=&quot;margin:0px;margin-top:6px;text-align:center;&quot;&gt;&lt;b&gt;&amp;lt;&amp;lt;subsystem&amp;gt;&amp;gt; Common&lt;/b&gt;&lt;/p&gt;&lt;hr size=&quot;1&quot; style=&quot;border-style:solid;&quot;&gt;&lt;p style=&quot;margin:0px;margin-left:8px;&quot;&gt;&lt;br&gt;&lt;/p&gt;" style="align=left;overflow=fill;html=1;dropTarget=0;whiteSpace=wrap;" vertex="1" parent="1">
          <mxGeometry x="520" y="860" width="320" height="200" as="geometry" />
        </mxCell>
        <mxCell id="gqLY5WaF7parTcAeaoHh-59" value="" style="shape=component;jettyWidth=8;jettyHeight=4;" vertex="1" parent="gqLY5WaF7parTcAeaoHh-58">
          <mxGeometry x="1" width="20" height="20" relative="1" as="geometry">
            <mxPoint x="-24" y="4" as="offset" />
          </mxGeometry>
        </mxCell>
        <mxCell id="gqLY5WaF7parTcAeaoHh-60" value="&lt;b&gt;World Context&lt;/b&gt;" style="html=1;dropTarget=0;whiteSpace=wrap;" vertex="1" parent="1">
          <mxGeometry x="560" y="935" width="240" height="70" as="geometry" />
        </mxCell>
        <mxCell id="gqLY5WaF7parTcAeaoHh-61" value="" style="shape=module;jettyWidth=8;jettyHeight=4;" vertex="1" parent="gqLY5WaF7parTcAeaoHh-60">
          <mxGeometry x="1" width="20" height="20" relative="1" as="geometry">
            <mxPoint x="-27" y="7" as="offset" />
          </mxGeometry>
        </mxCell>
        <mxCell id="gqLY5WaF7parTcAeaoHh-62" value="" style="endArrow=none;html=1;rounded=0;exitX=1;exitY=0.5;exitDx=0;exitDy=0;entryX=0;entryY=0.5;entryDx=0;entryDy=0;" edge="1" parent="1" source="gqLY5WaF7parTcAeaoHh-54" target="gqLY5WaF7parTcAeaoHh-60">
          <mxGeometry width="50" height="50" relative="1" as="geometry">
            <mxPoint x="670" y="980" as="sourcePoint" />
            <mxPoint x="720" y="930" as="targetPoint" />
          </mxGeometry>
        </mxCell>
        <mxCell id="gqLY5WaF7parTcAeaoHh-63" value="&lt;p style=&quot;margin:0px;margin-top:6px;text-align:center;&quot;&gt;&lt;b&gt;&amp;lt;&amp;lt;subsystem&amp;gt;&amp;gt; Backend&lt;/b&gt;&lt;/p&gt;&lt;hr size=&quot;1&quot; style=&quot;border-style:solid;&quot;&gt;&lt;p style=&quot;margin:0px;margin-left:8px;&quot;&gt;&lt;br&gt;&lt;/p&gt;" style="align=left;overflow=fill;html=1;dropTarget=0;whiteSpace=wrap;" vertex="1" parent="1">
          <mxGeometry x="880" y="740" width="920" height="440" as="geometry" />
        </mxCell>
        <mxCell id="gqLY5WaF7parTcAeaoHh-64" value="" style="shape=component;jettyWidth=8;jettyHeight=4;" vertex="1" parent="gqLY5WaF7parTcAeaoHh-63">
          <mxGeometry x="1" width="20" height="20" relative="1" as="geometry">
            <mxPoint x="-24" y="4" as="offset" />
          </mxGeometry>
        </mxCell>
        <mxCell id="gqLY5WaF7parTcAeaoHh-65" value="&lt;b&gt;World Manager&lt;/b&gt;" style="html=1;dropTarget=0;whiteSpace=wrap;" vertex="1" parent="1">
          <mxGeometry x="920" y="935" width="240" height="70" as="geometry" />
        </mxCell>
        <mxCell id="gqLY5WaF7parTcAeaoHh-66" value="" style="shape=module;jettyWidth=8;jettyHeight=4;" vertex="1" parent="gqLY5WaF7parTcAeaoHh-65">
          <mxGeometry x="1" width="20" height="20" relative="1" as="geometry">
            <mxPoint x="-27" y="7" as="offset" />
          </mxGeometry>
        </mxCell>
        <mxCell id="gqLY5WaF7parTcAeaoHh-67" value="" style="endArrow=none;html=1;rounded=0;exitX=1;exitY=0.5;exitDx=0;exitDy=0;entryX=0;entryY=0.5;entryDx=0;entryDy=0;" edge="1" parent="1" source="gqLY5WaF7parTcAeaoHh-60" target="gqLY5WaF7parTcAeaoHh-65">
          <mxGeometry width="50" height="50" relative="1" as="geometry">
            <mxPoint x="550" y="1030" as="sourcePoint" />
            <mxPoint x="700" y="1030" as="targetPoint" />
          </mxGeometry>
        </mxCell>
        <mxCell id="gqLY5WaF7parTcAeaoHh-68" value="&lt;b&gt;Player Controller&lt;/b&gt;" style="html=1;dropTarget=0;whiteSpace=wrap;" vertex="1" parent="1">
          <mxGeometry x="1220" y="800" width="240" height="70" as="geometry" />
        </mxCell>
        <mxCell id="gqLY5WaF7parTcAeaoHh-69" value="" style="shape=module;jettyWidth=8;jettyHeight=4;" vertex="1" parent="gqLY5WaF7parTcAeaoHh-68">
          <mxGeometry x="1" width="20" height="20" relative="1" as="geometry">
            <mxPoint x="-27" y="7" as="offset" />
          </mxGeometry>
        </mxCell>
        <mxCell id="gqLY5WaF7parTcAeaoHh-70" value="&lt;b&gt;Map Generator&lt;/b&gt;" style="html=1;dropTarget=0;whiteSpace=wrap;" vertex="1" parent="1">
          <mxGeometry x="1220" y="1070" width="240" height="70" as="geometry" />
        </mxCell>
        <mxCell id="gqLY5WaF7parTcAeaoHh-71" value="" style="shape=module;jettyWidth=8;jettyHeight=4;" vertex="1" parent="gqLY5WaF7parTcAeaoHh-70">
          <mxGeometry x="1" width="20" height="20" relative="1" as="geometry">
            <mxPoint x="-27" y="7" as="offset" />
          </mxGeometry>
        </mxCell>
        <mxCell id="gqLY5WaF7parTcAeaoHh-74" value="&lt;b&gt;Item Generator&lt;br&gt;(work in progress)&lt;/b&gt;" style="html=1;dropTarget=0;whiteSpace=wrap;" vertex="1" parent="1">
          <mxGeometry x="920" y="1070" width="240" height="70" as="geometry" />
        </mxCell>
        <mxCell id="gqLY5WaF7parTcAeaoHh-75" value="" style="shape=module;jettyWidth=8;jettyHeight=4;" vertex="1" parent="gqLY5WaF7parTcAeaoHh-74">
          <mxGeometry x="1" width="20" height="20" relative="1" as="geometry">
            <mxPoint x="-27" y="7" as="offset" />
          </mxGeometry>
        </mxCell>
        <mxCell id="gqLY5WaF7parTcAeaoHh-76" value="&lt;b&gt;Inventory Manager&lt;br&gt;(work in progress)&lt;/b&gt;" style="html=1;dropTarget=0;whiteSpace=wrap;" vertex="1" parent="1">
          <mxGeometry x="920" y="800" width="240" height="70" as="geometry" />
        </mxCell>
        <mxCell id="gqLY5WaF7parTcAeaoHh-77" value="" style="shape=module;jettyWidth=8;jettyHeight=4;" vertex="1" parent="gqLY5WaF7parTcAeaoHh-76">
          <mxGeometry x="1" width="20" height="20" relative="1" as="geometry">
            <mxPoint x="-27" y="7" as="offset" />
          </mxGeometry>
        </mxCell>
        <mxCell id="gqLY5WaF7parTcAeaoHh-78" value="" style="endArrow=none;html=1;rounded=0;exitX=0.5;exitY=0;exitDx=0;exitDy=0;entryX=0.5;entryY=1;entryDx=0;entryDy=0;" edge="1" parent="1" source="gqLY5WaF7parTcAeaoHh-65" target="gqLY5WaF7parTcAeaoHh-76">
          <mxGeometry width="50" height="50" relative="1" as="geometry">
            <mxPoint x="1230" y="1010" as="sourcePoint" />
            <mxPoint x="1350" y="1010" as="targetPoint" />
          </mxGeometry>
        </mxCell>
        <mxCell id="gqLY5WaF7parTcAeaoHh-79" value="" style="endArrow=none;html=1;rounded=0;exitX=1;exitY=0;exitDx=0;exitDy=0;entryX=0;entryY=1;entryDx=0;entryDy=0;" edge="1" parent="1" source="gqLY5WaF7parTcAeaoHh-65" target="gqLY5WaF7parTcAeaoHh-68">
          <mxGeometry width="50" height="50" relative="1" as="geometry">
            <mxPoint x="1170" y="995" as="sourcePoint" />
            <mxPoint x="1170" y="930" as="targetPoint" />
          </mxGeometry>
        </mxCell>
        <mxCell id="gqLY5WaF7parTcAeaoHh-80" value="" style="endArrow=none;html=1;rounded=0;entryX=0;entryY=0;entryDx=0;entryDy=0;exitX=1;exitY=1;exitDx=0;exitDy=0;" edge="1" parent="1" source="gqLY5WaF7parTcAeaoHh-65" target="gqLY5WaF7parTcAeaoHh-70">
          <mxGeometry width="50" height="50" relative="1" as="geometry">
            <mxPoint x="1240" y="1075" as="sourcePoint" />
            <mxPoint x="1300" y="1010" as="targetPoint" />
          </mxGeometry>
        </mxCell>
        <mxCell id="gqLY5WaF7parTcAeaoHh-85" value="&lt;b&gt;Behaviour&lt;/b&gt;" style="html=1;dropTarget=0;whiteSpace=wrap;" vertex="1" parent="1">
          <mxGeometry x="1220" y="935" width="240" height="70" as="geometry" />
        </mxCell>
        <mxCell id="gqLY5WaF7parTcAeaoHh-86" value="" style="shape=module;jettyWidth=8;jettyHeight=4;" vertex="1" parent="gqLY5WaF7parTcAeaoHh-85">
          <mxGeometry x="1" width="20" height="20" relative="1" as="geometry">
            <mxPoint x="-27" y="7" as="offset" />
          </mxGeometry>
        </mxCell>
        <mxCell id="gqLY5WaF7parTcAeaoHh-90" value="&lt;b&gt;Mob Generator&lt;/b&gt;" style="html=1;dropTarget=0;whiteSpace=wrap;" vertex="1" parent="1">
          <mxGeometry x="1520" y="1070" width="240" height="70" as="geometry" />
        </mxCell>
        <mxCell id="gqLY5WaF7parTcAeaoHh-91" value="" style="shape=module;jettyWidth=8;jettyHeight=4;" vertex="1" parent="gqLY5WaF7parTcAeaoHh-90">
          <mxGeometry x="1" width="20" height="20" relative="1" as="geometry">
            <mxPoint x="-27" y="7" as="offset" />
          </mxGeometry>
        </mxCell>
        <mxCell id="gqLY5WaF7parTcAeaoHh-93" value="" style="endArrow=none;html=1;rounded=0;entryX=1;entryY=0.5;entryDx=0;entryDy=0;exitX=0;exitY=0.5;exitDx=0;exitDy=0;" edge="1" parent="1" source="gqLY5WaF7parTcAeaoHh-90" target="gqLY5WaF7parTcAeaoHh-70">
          <mxGeometry width="50" height="50" relative="1" as="geometry">
            <mxPoint x="1490" y="1135" as="sourcePoint" />
            <mxPoint x="1430" y="1060" as="targetPoint" />
          </mxGeometry>
        </mxCell>
        <mxCell id="gqLY5WaF7parTcAeaoHh-94" value="" style="endArrow=none;html=1;rounded=0;entryX=0;entryY=0.5;entryDx=0;entryDy=0;exitX=1;exitY=0.5;exitDx=0;exitDy=0;" edge="1" parent="1" source="gqLY5WaF7parTcAeaoHh-74" target="gqLY5WaF7parTcAeaoHh-70">
          <mxGeometry width="50" height="50" relative="1" as="geometry">
            <mxPoint x="1590" y="1155" as="sourcePoint" />
            <mxPoint x="1530" y="1080" as="targetPoint" />
          </mxGeometry>
        </mxCell>
        <mxCell id="gqLY5WaF7parTcAeaoHh-97" value="" style="endArrow=open;endSize=12;dashed=1;html=1;rounded=0;exitX=0.5;exitY=1;exitDx=0;exitDy=0;entryX=0.5;entryY=0;entryDx=0;entryDy=0;" edge="1" parent="1" source="gqLY5WaF7parTcAeaoHh-68" target="gqLY5WaF7parTcAeaoHh-85">
          <mxGeometry width="160" relative="1" as="geometry">
            <mxPoint x="1280" y="1030" as="sourcePoint" />
            <mxPoint x="1440" y="1030" as="targetPoint" />
          </mxGeometry>
        </mxCell>
        <mxCell id="gqLY5WaF7parTcAeaoHh-98" value="" style="endArrow=open;endSize=12;dashed=1;html=1;rounded=0;exitX=0;exitY=0;exitDx=0;exitDy=0;entryX=1;entryY=1;entryDx=0;entryDy=0;" edge="1" parent="1" source="gqLY5WaF7parTcAeaoHh-90" target="gqLY5WaF7parTcAeaoHh-85">
          <mxGeometry width="160" relative="1" as="geometry">
            <mxPoint x="1490" y="1010" as="sourcePoint" />
            <mxPoint x="1490" y="1075" as="targetPoint" />
          </mxGeometry>
        </mxCell>
        <mxCell id="gqLY5WaF7parTcAeaoHh-101" value="" style="endArrow=open;endSize=12;dashed=1;html=1;rounded=0;exitX=1;exitY=0.5;exitDx=0;exitDy=0;entryX=0;entryY=0.5;entryDx=0;entryDy=0;" edge="1" parent="1" source="gqLY5WaF7parTcAeaoHh-65" target="gqLY5WaF7parTcAeaoHh-85">
          <mxGeometry width="160" relative="1" as="geometry">
            <mxPoint x="1620" y="1075" as="sourcePoint" />
            <mxPoint x="1560" y="1010" as="targetPoint" />
          </mxGeometry>
        </mxCell>
        <mxCell id="gqLY5WaF7parTcAeaoHh-102" value="" style="endArrow=none;html=1;rounded=0;entryX=0;entryY=0.5;entryDx=0;entryDy=0;" edge="1" parent="1" target="gqLY5WaF7parTcAeaoHh-54">
          <mxGeometry width="50" height="50" relative="1" as="geometry">
            <mxPoint x="-60" y="970" as="sourcePoint" />
            <mxPoint x="170" y="990" as="targetPoint" />
          </mxGeometry>
        </mxCell>
        <mxCell id="gqLY5WaF7parTcAeaoHh-103" value="" style="ellipse;whiteSpace=wrap;html=1;aspect=fixed;" vertex="1" parent="1">
          <mxGeometry x="-95" y="952" width="35" height="35" as="geometry" />
        </mxCell>
        <mxCell id="gqLY5WaF7parTcAeaoHh-104" value="&lt;font style=&quot;font-size: 14px;&quot;&gt;Gameplay&lt;/font&gt;" style="text;html=1;align=center;verticalAlign=middle;whiteSpace=wrap;rounded=0;" vertex="1" parent="1">
          <mxGeometry x="-107.5" y="922" width="60" height="30" as="geometry" />
        </mxCell>
        <mxCell id="gqLY5WaF7parTcAeaoHh-111" value="Frontend" style="rounded=0;whiteSpace=wrap;html=1;" vertex="1" parent="1">
          <mxGeometry x="280" y="1360" width="120" height="40" as="geometry" />
        </mxCell>
        <mxCell id="gqLY5WaF7parTcAeaoHh-112" value="World Manager" style="rounded=0;whiteSpace=wrap;html=1;" vertex="1" parent="1">
          <mxGeometry x="440" y="1360" width="120" height="40" as="geometry" />
        </mxCell>
        <mxCell id="gqLY5WaF7parTcAeaoHh-113" value="" style="endArrow=none;dashed=1;html=1;rounded=0;entryX=0.5;entryY=1;entryDx=0;entryDy=0;" edge="1" parent="1" target="gqLY5WaF7parTcAeaoHh-111">
          <mxGeometry width="50" height="50" relative="1" as="geometry">
            <mxPoint x="340" y="2680" as="sourcePoint" />
            <mxPoint x="480" y="1540" as="targetPoint" />
          </mxGeometry>
        </mxCell>
        <mxCell id="gqLY5WaF7parTcAeaoHh-114" value="" style="endArrow=none;dashed=1;html=1;rounded=0;entryX=0.5;entryY=1;entryDx=0;entryDy=0;" edge="1" parent="1" source="gqLY5WaF7parTcAeaoHh-156">
          <mxGeometry width="50" height="50" relative="1" as="geometry">
            <mxPoint x="499.66" y="2280" as="sourcePoint" />
            <mxPoint x="499.66" y="1400" as="targetPoint" />
          </mxGeometry>
        </mxCell>
        <mxCell id="gqLY5WaF7parTcAeaoHh-117" value="" style="rounded=0;whiteSpace=wrap;html=1;" vertex="1" parent="1">
          <mxGeometry x="330" y="1440" width="20" height="100" as="geometry" />
        </mxCell>
        <mxCell id="gqLY5WaF7parTcAeaoHh-116" value="windowLoaded" style="html=1;verticalAlign=bottom;startArrow=oval;startFill=1;endArrow=block;startSize=8;curved=0;rounded=0;" edge="1" parent="1">
          <mxGeometry width="60" relative="1" as="geometry">
            <mxPoint x="240" y="1440" as="sourcePoint" />
            <mxPoint x="340" y="1440" as="targetPoint" />
            <mxPoint as="offset" />
          </mxGeometry>
        </mxCell>
        <mxCell id="gqLY5WaF7parTcAeaoHh-118" value="" style="rounded=0;whiteSpace=wrap;html=1;" vertex="1" parent="1">
          <mxGeometry x="490" y="1450" width="20" height="80" as="geometry" />
        </mxCell>
        <mxCell id="gqLY5WaF7parTcAeaoHh-121" value="Map Generator" style="rounded=0;whiteSpace=wrap;html=1;" vertex="1" parent="1">
          <mxGeometry x="600" y="1360" width="120" height="40" as="geometry" />
        </mxCell>
        <mxCell id="gqLY5WaF7parTcAeaoHh-122" value="" style="endArrow=none;dashed=1;html=1;rounded=0;entryX=0.5;entryY=1;entryDx=0;entryDy=0;" edge="1" parent="1">
          <mxGeometry width="50" height="50" relative="1" as="geometry">
            <mxPoint x="660" y="2680" as="sourcePoint" />
            <mxPoint x="659.5799999999999" y="1400" as="targetPoint" />
          </mxGeometry>
        </mxCell>
        <mxCell id="gqLY5WaF7parTcAeaoHh-123" value="" style="rounded=0;whiteSpace=wrap;html=1;" vertex="1" parent="1">
          <mxGeometry x="650" y="1460" width="20" height="60" as="geometry" />
        </mxCell>
        <mxCell id="gqLY5WaF7parTcAeaoHh-128" value="getStartingRoom" style="html=1;verticalAlign=bottom;endArrow=block;curved=0;rounded=0;exitX=0.996;exitY=0.084;exitDx=0;exitDy=0;exitPerimeter=0;entryX=0;entryY=0;entryDx=0;entryDy=0;" edge="1" parent="1">
          <mxGeometry width="80" relative="1" as="geometry">
            <mxPoint x="510" y="1460" as="sourcePoint" />
            <mxPoint x="650" y="1460" as="targetPoint" />
          </mxGeometry>
        </mxCell>
        <mxCell id="gqLY5WaF7parTcAeaoHh-129" value="Mob Generator" style="rounded=0;whiteSpace=wrap;html=1;" vertex="1" parent="1">
          <mxGeometry x="760" y="1360" width="120" height="40" as="geometry" />
        </mxCell>
        <mxCell id="gqLY5WaF7parTcAeaoHh-130" value="" style="endArrow=none;dashed=1;html=1;rounded=0;entryX=0.5;entryY=1;entryDx=0;entryDy=0;" edge="1" parent="1" source="gqLY5WaF7parTcAeaoHh-162">
          <mxGeometry width="50" height="50" relative="1" as="geometry">
            <mxPoint x="819.66" y="2280" as="sourcePoint" />
            <mxPoint x="819.66" y="1400" as="targetPoint" />
          </mxGeometry>
        </mxCell>
        <mxCell id="gqLY5WaF7parTcAeaoHh-131" value="" style="rounded=0;whiteSpace=wrap;html=1;" vertex="1" parent="1">
          <mxGeometry x="810" y="1470" width="20" height="40" as="geometry" />
        </mxCell>
        <mxCell id="gqLY5WaF7parTcAeaoHh-132" value="fillRoom" style="html=1;verticalAlign=bottom;endArrow=block;curved=0;rounded=0;exitX=0.996;exitY=0.084;exitDx=0;exitDy=0;exitPerimeter=0;entryX=0;entryY=0;entryDx=0;entryDy=0;" edge="1" parent="1">
          <mxGeometry width="80" relative="1" as="geometry">
            <mxPoint x="670" y="1470" as="sourcePoint" />
            <mxPoint x="810" y="1470" as="targetPoint" />
          </mxGeometry>
        </mxCell>
        <mxCell id="gqLY5WaF7parTcAeaoHh-133" value="Behaviour" style="rounded=0;whiteSpace=wrap;html=1;" vertex="1" parent="1">
          <mxGeometry x="920" y="1360" width="120" height="40" as="geometry" />
        </mxCell>
        <mxCell id="gqLY5WaF7parTcAeaoHh-135" value="" style="rounded=0;whiteSpace=wrap;html=1;" vertex="1" parent="1">
          <mxGeometry x="970" y="1480" width="20" height="20" as="geometry" />
        </mxCell>
        <mxCell id="gqLY5WaF7parTcAeaoHh-136" value="RandomEnemyCharacter" style="html=1;verticalAlign=bottom;endArrow=block;curved=0;rounded=0;exitX=0.996;exitY=0.084;exitDx=0;exitDy=0;exitPerimeter=0;entryX=0;entryY=0;entryDx=0;entryDy=0;" edge="1" parent="1">
          <mxGeometry x="0.0049" width="80" relative="1" as="geometry">
            <mxPoint x="830" y="1480" as="sourcePoint" />
            <mxPoint x="970" y="1480" as="targetPoint" />
            <mxPoint as="offset" />
          </mxGeometry>
        </mxCell>
        <mxCell id="gqLY5WaF7parTcAeaoHh-137" value="Character" style="html=1;verticalAlign=bottom;endArrow=open;dashed=1;endSize=8;curved=0;rounded=0;exitX=0;exitY=1;exitDx=0;exitDy=0;" edge="1" parent="1" source="gqLY5WaF7parTcAeaoHh-135">
          <mxGeometry relative="1" as="geometry">
            <mxPoint x="960" y="1500" as="sourcePoint" />
            <mxPoint x="830" y="1500" as="targetPoint" />
          </mxGeometry>
        </mxCell>
        <mxCell id="gqLY5WaF7parTcAeaoHh-144" value="Entities Map" style="html=1;verticalAlign=bottom;endArrow=open;dashed=1;endSize=8;curved=0;rounded=0;exitX=0;exitY=1;exitDx=0;exitDy=0;" edge="1" parent="1">
          <mxGeometry relative="1" as="geometry">
            <mxPoint x="810" y="1510" as="sourcePoint" />
            <mxPoint x="670" y="1510" as="targetPoint" />
          </mxGeometry>
        </mxCell>
        <mxCell id="gqLY5WaF7parTcAeaoHh-145" value="Starting Room" style="html=1;verticalAlign=bottom;endArrow=open;dashed=1;endSize=8;curved=0;rounded=0;exitX=0;exitY=1;exitDx=0;exitDy=0;" edge="1" parent="1">
          <mxGeometry relative="1" as="geometry">
            <mxPoint x="650" y="1520" as="sourcePoint" />
            <mxPoint x="510" y="1520" as="targetPoint" />
          </mxGeometry>
        </mxCell>
        <mxCell id="gqLY5WaF7parTcAeaoHh-146" value="World" style="html=1;verticalAlign=bottom;endArrow=open;dashed=1;endSize=8;curved=0;rounded=0;exitX=0;exitY=1;exitDx=0;exitDy=0;" edge="1" parent="1">
          <mxGeometry relative="1" as="geometry">
            <mxPoint x="490" y="1530" as="sourcePoint" />
            <mxPoint x="350" y="1530" as="targetPoint" />
          </mxGeometry>
        </mxCell>
        <mxCell id="gqLY5WaF7parTcAeaoHh-147" value="generateWorld" style="html=1;verticalAlign=bottom;endArrow=block;curved=0;rounded=0;exitX=0.996;exitY=0.084;exitDx=0;exitDy=0;exitPerimeter=0;entryX=0;entryY=0;entryDx=0;entryDy=0;" edge="1" parent="1">
          <mxGeometry width="80" relative="1" as="geometry">
            <mxPoint x="350" y="1450" as="sourcePoint" />
            <mxPoint x="490" y="1450" as="targetPoint" />
          </mxGeometry>
        </mxCell>
        <mxCell id="gqLY5WaF7parTcAeaoHh-148" value="arrowPressed" style="html=1;verticalAlign=bottom;startArrow=oval;startFill=1;endArrow=block;startSize=8;curved=0;rounded=0;" edge="1" parent="1">
          <mxGeometry width="60" relative="1" as="geometry">
            <mxPoint x="240" y="1580" as="sourcePoint" />
            <mxPoint x="340" y="1580" as="targetPoint" />
            <mxPoint as="offset" />
          </mxGeometry>
        </mxCell>
        <mxCell id="gqLY5WaF7parTcAeaoHh-149" value="loop" style="shape=umlFrame;whiteSpace=wrap;html=1;pointerEvents=0;" vertex="1" parent="1">
          <mxGeometry x="780" y="1430" width="220" height="110" as="geometry" />
        </mxCell>
        <mxCell id="gqLY5WaF7parTcAeaoHh-151" value="" style="rounded=0;whiteSpace=wrap;html=1;" vertex="1" parent="1">
          <mxGeometry x="330" y="1580" width="20" height="240" as="geometry" />
        </mxCell>
        <mxCell id="gqLY5WaF7parTcAeaoHh-153" value="Player Controller" style="rounded=0;whiteSpace=wrap;html=1;" vertex="1" parent="1">
          <mxGeometry x="1080" y="1360" width="120" height="40" as="geometry" />
        </mxCell>
        <mxCell id="gqLY5WaF7parTcAeaoHh-154" value="" style="endArrow=none;dashed=1;html=1;rounded=0;entryX=0.5;entryY=1;entryDx=0;entryDy=0;" edge="1" parent="1">
          <mxGeometry width="50" height="50" relative="1" as="geometry">
            <mxPoint x="1140" y="2680" as="sourcePoint" />
            <mxPoint x="1139.66" y="1400" as="targetPoint" />
          </mxGeometry>
        </mxCell>
        <mxCell id="gqLY5WaF7parTcAeaoHh-155" value="handleEvent(player_move)" style="html=1;verticalAlign=bottom;endArrow=block;curved=0;rounded=0;exitX=0.996;exitY=0.084;exitDx=0;exitDy=0;exitPerimeter=0;" edge="1" parent="1">
          <mxGeometry width="80" relative="1" as="geometry">
            <mxPoint x="350" y="1590" as="sourcePoint" />
            <mxPoint x="490" y="1590" as="targetPoint" />
          </mxGeometry>
        </mxCell>
        <mxCell id="gqLY5WaF7parTcAeaoHh-157" value="" style="endArrow=none;dashed=1;html=1;rounded=0;entryX=0.5;entryY=1;entryDx=0;entryDy=0;" edge="1" parent="1" target="gqLY5WaF7parTcAeaoHh-156">
          <mxGeometry width="50" height="50" relative="1" as="geometry">
            <mxPoint x="500" y="2680" as="sourcePoint" />
            <mxPoint x="499.66" y="1400" as="targetPoint" />
          </mxGeometry>
        </mxCell>
        <mxCell id="gqLY5WaF7parTcAeaoHh-156" value="" style="rounded=0;whiteSpace=wrap;html=1;" vertex="1" parent="1">
          <mxGeometry x="490" y="1590" width="20" height="220" as="geometry" />
        </mxCell>
        <mxCell id="gqLY5WaF7parTcAeaoHh-158" value="" style="rounded=0;whiteSpace=wrap;html=1;" vertex="1" parent="1">
          <mxGeometry x="1130" y="1600" width="20" height="20" as="geometry" />
        </mxCell>
        <mxCell id="gqLY5WaF7parTcAeaoHh-159" value="movePlayer(World)" style="html=1;verticalAlign=bottom;endArrow=block;curved=0;rounded=0;exitX=0.996;exitY=0.084;exitDx=0;exitDy=0;exitPerimeter=0;entryX=0;entryY=0;entryDx=0;entryDy=0;" edge="1" parent="1" target="gqLY5WaF7parTcAeaoHh-158">
          <mxGeometry x="0.0011" width="80" relative="1" as="geometry">
            <mxPoint x="510" y="1600" as="sourcePoint" />
            <mxPoint x="650" y="1600" as="targetPoint" />
            <mxPoint as="offset" />
          </mxGeometry>
        </mxCell>
        <mxCell id="gqLY5WaF7parTcAeaoHh-160" value="Updated World" style="html=1;verticalAlign=bottom;endArrow=open;dashed=1;endSize=8;curved=0;rounded=0;exitX=0;exitY=1;exitDx=0;exitDy=0;" edge="1" parent="1" source="gqLY5WaF7parTcAeaoHh-158">
          <mxGeometry relative="1" as="geometry">
            <mxPoint x="650" y="1620" as="sourcePoint" />
            <mxPoint x="510" y="1620" as="targetPoint" />
          </mxGeometry>
        </mxCell>
        <mxCell id="gqLY5WaF7parTcAeaoHh-161" value="" style="rounded=0;whiteSpace=wrap;html=1;" vertex="1" parent="1">
          <mxGeometry x="650" y="1680" width="20" height="60" as="geometry" />
        </mxCell>
        <mxCell id="gqLY5WaF7parTcAeaoHh-164" value="" style="endArrow=none;dashed=1;html=1;rounded=0;entryX=0.5;entryY=1;entryDx=0;entryDy=0;" edge="1" parent="1" source="gqLY5WaF7parTcAeaoHh-185" target="gqLY5WaF7parTcAeaoHh-163">
          <mxGeometry width="50" height="50" relative="1" as="geometry">
            <mxPoint x="980" y="2680" as="sourcePoint" />
            <mxPoint x="979.66" y="1400" as="targetPoint" />
          </mxGeometry>
        </mxCell>
        <mxCell id="gqLY5WaF7parTcAeaoHh-163" value="" style="rounded=0;whiteSpace=wrap;html=1;" vertex="1" parent="1">
          <mxGeometry x="970" y="1700" width="20" height="20" as="geometry" />
        </mxCell>
        <mxCell id="gqLY5WaF7parTcAeaoHh-165" value="RandomEnemyCharacter" style="html=1;verticalAlign=bottom;endArrow=block;curved=0;rounded=0;exitX=0.996;exitY=0.084;exitDx=0;exitDy=0;exitPerimeter=0;entryX=0;entryY=0;entryDx=0;entryDy=0;" edge="1" parent="1">
          <mxGeometry x="0.0049" width="80" relative="1" as="geometry">
            <mxPoint x="830" y="1699.31" as="sourcePoint" />
            <mxPoint x="970" y="1699.31" as="targetPoint" />
            <mxPoint as="offset" />
          </mxGeometry>
        </mxCell>
        <mxCell id="gqLY5WaF7parTcAeaoHh-166" value="Character" style="html=1;verticalAlign=bottom;endArrow=open;dashed=1;endSize=8;curved=0;rounded=0;exitX=0;exitY=1;exitDx=0;exitDy=0;" edge="1" parent="1">
          <mxGeometry relative="1" as="geometry">
            <mxPoint x="970" y="1720" as="sourcePoint" />
            <mxPoint x="830" y="1720" as="targetPoint" />
          </mxGeometry>
        </mxCell>
        <mxCell id="gqLY5WaF7parTcAeaoHh-167" value="fillRoom" style="html=1;verticalAlign=bottom;endArrow=block;curved=0;rounded=0;exitX=0.996;exitY=0.084;exitDx=0;exitDy=0;exitPerimeter=0;entryX=0;entryY=0;entryDx=0;entryDy=0;" edge="1" parent="1">
          <mxGeometry width="80" relative="1" as="geometry">
            <mxPoint x="670" y="1690" as="sourcePoint" />
            <mxPoint x="810" y="1690" as="targetPoint" />
          </mxGeometry>
        </mxCell>
        <mxCell id="gqLY5WaF7parTcAeaoHh-168" value="Entities Map" style="html=1;verticalAlign=bottom;endArrow=open;dashed=1;endSize=8;curved=0;rounded=0;exitX=0;exitY=1;exitDx=0;exitDy=0;" edge="1" parent="1">
          <mxGeometry relative="1" as="geometry">
            <mxPoint x="810" y="1729.31" as="sourcePoint" />
            <mxPoint x="670" y="1729.31" as="targetPoint" />
          </mxGeometry>
        </mxCell>
        <mxCell id="gqLY5WaF7parTcAeaoHh-169" value="loop" style="shape=umlFrame;whiteSpace=wrap;html=1;pointerEvents=0;" vertex="1" parent="1">
          <mxGeometry x="780" y="1650" width="220" height="110" as="geometry" />
        </mxCell>
        <mxCell id="gqLY5WaF7parTcAeaoHh-170" value="" style="endArrow=none;dashed=1;html=1;rounded=0;entryX=0.5;entryY=1;entryDx=0;entryDy=0;" edge="1" parent="1" target="gqLY5WaF7parTcAeaoHh-162">
          <mxGeometry width="50" height="50" relative="1" as="geometry">
            <mxPoint x="820" y="2680" as="sourcePoint" />
            <mxPoint x="819.66" y="1400" as="targetPoint" />
          </mxGeometry>
        </mxCell>
        <mxCell id="gqLY5WaF7parTcAeaoHh-162" value="" style="rounded=0;whiteSpace=wrap;html=1;" vertex="1" parent="1">
          <mxGeometry x="810" y="1690" width="20" height="40" as="geometry" />
        </mxCell>
        <mxCell id="gqLY5WaF7parTcAeaoHh-174" value="alt" style="shape=umlFrame;whiteSpace=wrap;html=1;pointerEvents=0;" vertex="1" parent="1">
          <mxGeometry x="410" y="1630" width="620" height="160" as="geometry" />
        </mxCell>
        <mxCell id="gqLY5WaF7parTcAeaoHh-175" value="(Player is on exit)" style="text;html=1;align=center;verticalAlign=middle;whiteSpace=wrap;rounded=0;" vertex="1" parent="1">
          <mxGeometry x="410" y="1660" width="60" height="30" as="geometry" />
        </mxCell>
        <mxCell id="gqLY5WaF7parTcAeaoHh-176" value="generateRoom" style="html=1;verticalAlign=bottom;endArrow=block;curved=0;rounded=0;exitX=0.996;exitY=0.084;exitDx=0;exitDy=0;exitPerimeter=0;entryX=0;entryY=0;entryDx=0;entryDy=0;" edge="1" parent="1">
          <mxGeometry width="80" relative="1" as="geometry">
            <mxPoint x="510" y="1679.31" as="sourcePoint" />
            <mxPoint x="650" y="1679.31" as="targetPoint" />
          </mxGeometry>
        </mxCell>
        <mxCell id="gqLY5WaF7parTcAeaoHh-177" value="Room" style="html=1;verticalAlign=bottom;endArrow=open;dashed=1;endSize=8;curved=0;rounded=0;exitX=0;exitY=1;exitDx=0;exitDy=0;" edge="1" parent="1">
          <mxGeometry relative="1" as="geometry">
            <mxPoint x="650" y="1740" as="sourcePoint" />
            <mxPoint x="510" y="1740" as="targetPoint" />
          </mxGeometry>
        </mxCell>
        <mxCell id="gqLY5WaF7parTcAeaoHh-178" value="Updated World" style="html=1;verticalAlign=bottom;endArrow=open;dashed=1;endSize=8;curved=0;rounded=0;exitX=0;exitY=1;exitDx=0;exitDy=0;" edge="1" parent="1">
          <mxGeometry relative="1" as="geometry">
            <mxPoint x="490" y="1810" as="sourcePoint" />
            <mxPoint x="350" y="1810" as="targetPoint" />
          </mxGeometry>
        </mxCell>
        <mxCell id="gqLY5WaF7parTcAeaoHh-179" value="spacebarPressed" style="html=1;verticalAlign=bottom;startArrow=oval;startFill=1;endArrow=block;startSize=8;curved=0;rounded=0;" edge="1" parent="1">
          <mxGeometry width="60" relative="1" as="geometry">
            <mxPoint x="240" y="1860" as="sourcePoint" />
            <mxPoint x="340" y="1860" as="targetPoint" />
            <mxPoint as="offset" />
          </mxGeometry>
        </mxCell>
        <mxCell id="gqLY5WaF7parTcAeaoHh-180" value="" style="rounded=0;whiteSpace=wrap;html=1;" vertex="1" parent="1">
          <mxGeometry x="330" y="1860" width="20" height="120" as="geometry" />
        </mxCell>
        <mxCell id="gqLY5WaF7parTcAeaoHh-181" value="handleEvent(player_attack)" style="html=1;verticalAlign=bottom;endArrow=block;curved=0;rounded=0;exitX=0.996;exitY=0.084;exitDx=0;exitDy=0;exitPerimeter=0;" edge="1" parent="1">
          <mxGeometry width="80" relative="1" as="geometry">
            <mxPoint x="350" y="1870" as="sourcePoint" />
            <mxPoint x="490" y="1870" as="targetPoint" />
          </mxGeometry>
        </mxCell>
        <mxCell id="gqLY5WaF7parTcAeaoHh-182" value="" style="rounded=0;whiteSpace=wrap;html=1;" vertex="1" parent="1">
          <mxGeometry x="490" y="1870" width="20" height="100" as="geometry" />
        </mxCell>
        <mxCell id="gqLY5WaF7parTcAeaoHh-183" value="" style="rounded=0;whiteSpace=wrap;html=1;" vertex="1" parent="1">
          <mxGeometry x="1130" y="1880" width="20" height="80" as="geometry" />
        </mxCell>
        <mxCell id="gqLY5WaF7parTcAeaoHh-184" value="attackFromPlayer(World)" style="html=1;verticalAlign=bottom;endArrow=block;curved=0;rounded=0;exitX=0.996;exitY=0.084;exitDx=0;exitDy=0;exitPerimeter=0;entryX=0;entryY=0;entryDx=0;entryDy=0;" edge="1" parent="1">
          <mxGeometry x="0.0011" width="80" relative="1" as="geometry">
            <mxPoint x="510" y="1880" as="sourcePoint" />
            <mxPoint x="1130" y="1880" as="targetPoint" />
            <mxPoint as="offset" />
          </mxGeometry>
        </mxCell>
        <mxCell id="gqLY5WaF7parTcAeaoHh-186" value="attack(World)" style="html=1;verticalAlign=bottom;endArrow=block;curved=0;rounded=0;" edge="1" parent="1">
          <mxGeometry x="0.0011" width="80" relative="1" as="geometry">
            <mxPoint x="1130" y="1910" as="sourcePoint" />
            <mxPoint x="990" y="1910" as="targetPoint" />
            <mxPoint as="offset" />
          </mxGeometry>
        </mxCell>
        <mxCell id="gqLY5WaF7parTcAeaoHh-187" value="" style="endArrow=none;dashed=1;html=1;rounded=0;entryX=0.5;entryY=1;entryDx=0;entryDy=0;" edge="1" parent="1" target="gqLY5WaF7parTcAeaoHh-185">
          <mxGeometry width="50" height="50" relative="1" as="geometry">
            <mxPoint x="980" y="2680" as="sourcePoint" />
            <mxPoint x="980" y="1720" as="targetPoint" />
          </mxGeometry>
        </mxCell>
        <mxCell id="gqLY5WaF7parTcAeaoHh-185" value="" style="rounded=0;whiteSpace=wrap;html=1;" vertex="1" parent="1">
          <mxGeometry x="970" y="1910" width="20" height="20" as="geometry" />
        </mxCell>
        <mxCell id="gqLY5WaF7parTcAeaoHh-188" value="Player Attack" style="html=1;verticalAlign=bottom;endArrow=open;dashed=1;endSize=8;curved=0;rounded=0;" edge="1" parent="1">
          <mxGeometry relative="1" as="geometry">
            <mxPoint x="990" y="1930" as="sourcePoint" />
            <mxPoint x="1130" y="1930.42" as="targetPoint" />
          </mxGeometry>
        </mxCell>
        <mxCell id="gqLY5WaF7parTcAeaoHh-189" value="Updated World" style="html=1;verticalAlign=bottom;endArrow=open;dashed=1;endSize=8;curved=0;rounded=0;exitX=0;exitY=1;exitDx=0;exitDy=0;" edge="1" parent="1">
          <mxGeometry relative="1" as="geometry">
            <mxPoint x="1130" y="1959.58" as="sourcePoint" />
            <mxPoint x="510" y="1959.58" as="targetPoint" />
          </mxGeometry>
        </mxCell>
        <mxCell id="gqLY5WaF7parTcAeaoHh-191" value="Updated World" style="html=1;verticalAlign=bottom;endArrow=open;dashed=1;endSize=8;curved=0;rounded=0;exitX=0;exitY=1;exitDx=0;exitDy=0;" edge="1" parent="1">
          <mxGeometry relative="1" as="geometry">
            <mxPoint x="490" y="1970" as="sourcePoint" />
            <mxPoint x="350" y="1970" as="targetPoint" />
          </mxGeometry>
        </mxCell>
        <mxCell id="gqLY5WaF7parTcAeaoHh-192" value="&lt;b&gt;Upgrade&lt;br&gt;Menu&lt;/b&gt;" style="html=1;dropTarget=0;whiteSpace=wrap;" vertex="1" parent="1">
          <mxGeometry x="182.5" y="1040" width="90" height="70" as="geometry" />
        </mxCell>
        <mxCell id="gqLY5WaF7parTcAeaoHh-193" value="" style="shape=module;jettyWidth=8;jettyHeight=4;" vertex="1" parent="gqLY5WaF7parTcAeaoHh-192">
          <mxGeometry x="1" width="20" height="20" relative="1" as="geometry">
            <mxPoint x="-27" y="7" as="offset" />
          </mxGeometry>
        </mxCell>
        <mxCell id="gqLY5WaF7parTcAeaoHh-194" value="&lt;b&gt;Death&lt;br&gt;Modal&lt;/b&gt;" style="html=1;dropTarget=0;whiteSpace=wrap;" vertex="1" parent="1">
          <mxGeometry x="280" y="1040" width="90" height="70" as="geometry" />
        </mxCell>
        <mxCell id="gqLY5WaF7parTcAeaoHh-195" value="" style="shape=module;jettyWidth=8;jettyHeight=4;" vertex="1" parent="gqLY5WaF7parTcAeaoHh-194">
          <mxGeometry x="1" width="20" height="20" relative="1" as="geometry">
            <mxPoint x="-27" y="7" as="offset" />
          </mxGeometry>
        </mxCell>
        <mxCell id="gqLY5WaF7parTcAeaoHh-197" value="" style="ellipse;html=1;shape=startState;fillColor=#000000;strokeColor=#ff0000;" vertex="1" parent="1">
          <mxGeometry x="340" y="2800" width="30" height="30" as="geometry" />
        </mxCell>
        <mxCell id="gqLY5WaF7parTcAeaoHh-198" value="" style="edgeStyle=orthogonalEdgeStyle;html=1;verticalAlign=bottom;endArrow=open;endSize=8;strokeColor=#ff0000;rounded=0;entryX=0.5;entryY=0;entryDx=0;entryDy=0;" edge="1" source="gqLY5WaF7parTcAeaoHh-197" parent="1" target="gqLY5WaF7parTcAeaoHh-199">
          <mxGeometry relative="1" as="geometry">
            <mxPoint x="355" y="2890" as="targetPoint" />
          </mxGeometry>
        </mxCell>
        <mxCell id="gqLY5WaF7parTcAeaoHh-199" value="Window Loaded" style="rounded=1;whiteSpace=wrap;html=1;arcSize=40;fontColor=#000000;fillColor=#ffffc0;strokeColor=#ff0000;" vertex="1" parent="1">
          <mxGeometry x="390" y="2850" width="120" height="40" as="geometry" />
        </mxCell>
        <mxCell id="gqLY5WaF7parTcAeaoHh-200" value="" style="edgeStyle=orthogonalEdgeStyle;html=1;verticalAlign=bottom;endArrow=open;endSize=8;strokeColor=#ff0000;rounded=0;entryX=0;entryY=0.5;entryDx=0;entryDy=0;" edge="1" source="gqLY5WaF7parTcAeaoHh-199" parent="1" target="gqLY5WaF7parTcAeaoHh-206">
          <mxGeometry relative="1" as="geometry">
            <mxPoint x="570" y="2870" as="targetPoint" />
          </mxGeometry>
        </mxCell>
        <mxCell id="gqLY5WaF7parTcAeaoHh-206" value="World Loaded" style="rounded=1;whiteSpace=wrap;html=1;arcSize=40;fontColor=#000000;fillColor=#ffffc0;strokeColor=#ff0000;" vertex="1" parent="1">
          <mxGeometry x="580" y="2850" width="120" height="40" as="geometry" />
        </mxCell>
        <mxCell id="gqLY5WaF7parTcAeaoHh-207" value="" style="edgeStyle=orthogonalEdgeStyle;html=1;verticalAlign=bottom;endArrow=open;endSize=8;strokeColor=#ff0000;rounded=0;" edge="1" source="gqLY5WaF7parTcAeaoHh-206" parent="1">
          <mxGeometry relative="1" as="geometry">
            <mxPoint x="800" y="2870" as="targetPoint" />
          </mxGeometry>
        </mxCell>
        <mxCell id="gqLY5WaF7parTcAeaoHh-208" value="Dead Modal" style="rounded=1;whiteSpace=wrap;html=1;arcSize=40;fontColor=#000000;fillColor=#ffffc0;strokeColor=#ff0000;" vertex="1" parent="1">
          <mxGeometry x="800" y="2850" width="120" height="40" as="geometry" />
        </mxCell>
        <mxCell id="gqLY5WaF7parTcAeaoHh-209" value="Generate World" style="text;html=1;align=center;verticalAlign=middle;whiteSpace=wrap;rounded=0;" vertex="1" parent="1">
          <mxGeometry x="510" y="2840" width="60" height="30" as="geometry" />
        </mxCell>
        <mxCell id="gqLY5WaF7parTcAeaoHh-210" value="Open Dead Modal&lt;br&gt;[isPlayerDead]" style="text;html=1;align=center;verticalAlign=middle;whiteSpace=wrap;rounded=0;" vertex="1" parent="1">
          <mxGeometry x="700" y="2840" width="100" height="30" as="geometry" />
        </mxCell>
        <mxCell id="gqLY5WaF7parTcAeaoHh-214" value="" style="edgeStyle=orthogonalEdgeStyle;html=1;verticalAlign=bottom;endArrow=open;endSize=8;strokeColor=#ff0000;rounded=0;exitX=0.25;exitY=1;exitDx=0;exitDy=0;entryX=0.25;entryY=0;entryDx=0;entryDy=0;" edge="1" parent="1">
          <mxGeometry relative="1" as="geometry">
            <mxPoint x="659.66" y="3010" as="targetPoint" />
            <mxPoint x="659.66" y="2890" as="sourcePoint" />
          </mxGeometry>
        </mxCell>
        <mxCell id="gqLY5WaF7parTcAeaoHh-215" value="Waiting for World update (other)" style="rounded=1;whiteSpace=wrap;html=1;arcSize=40;fontColor=#000000;fillColor=#ffffc0;strokeColor=#ff0000;" vertex="1" parent="1">
          <mxGeometry x="640" y="3010" width="70" height="70" as="geometry" />
        </mxCell>
        <mxCell id="gqLY5WaF7parTcAeaoHh-216" value="Event Sent" style="text;html=1;align=center;verticalAlign=middle;whiteSpace=wrap;rounded=0;" vertex="1" parent="1">
          <mxGeometry x="610" y="2970" width="60" height="30" as="geometry" />
        </mxCell>
        <mxCell id="gqLY5WaF7parTcAeaoHh-217" value="" style="edgeStyle=orthogonalEdgeStyle;html=1;verticalAlign=bottom;endArrow=open;endSize=8;strokeColor=#ff0000;rounded=0;exitX=0.605;exitY=-0.006;exitDx=0;exitDy=0;entryX=0.854;entryY=0.997;entryDx=0;entryDy=0;entryPerimeter=0;exitPerimeter=0;" edge="1" parent="1" source="gqLY5WaF7parTcAeaoHh-215" target="gqLY5WaF7parTcAeaoHh-206">
          <mxGeometry relative="1" as="geometry">
            <mxPoint x="740" y="3030" as="targetPoint" />
            <mxPoint x="740" y="2960" as="sourcePoint" />
          </mxGeometry>
        </mxCell>
        <mxCell id="gqLY5WaF7parTcAeaoHh-218" value="World Updated" style="text;html=1;align=center;verticalAlign=middle;whiteSpace=wrap;rounded=0;" vertex="1" parent="1">
          <mxGeometry x="680" y="2970" width="60" height="30" as="geometry" />
        </mxCell>
        <mxCell id="gqLY5WaF7parTcAeaoHh-219" value="" style="edgeStyle=orthogonalEdgeStyle;html=1;verticalAlign=bottom;endArrow=open;endSize=8;strokeColor=#ff0000;rounded=0;exitX=0.5;exitY=1;exitDx=0;exitDy=0;entryX=1;entryY=0.5;entryDx=0;entryDy=0;" edge="1" parent="1" source="gqLY5WaF7parTcAeaoHh-208" target="gqLY5WaF7parTcAeaoHh-215">
          <mxGeometry relative="1" as="geometry">
            <mxPoint x="870" y="3050" as="targetPoint" />
            <mxPoint x="870" y="2980" as="sourcePoint" />
          </mxGeometry>
        </mxCell>
        <mxCell id="gqLY5WaF7parTcAeaoHh-220" value="Restart the Game" style="text;html=1;align=center;verticalAlign=middle;whiteSpace=wrap;rounded=0;" vertex="1" parent="1">
          <mxGeometry x="790" y="3010" width="60" height="30" as="geometry" />
        </mxCell>
        <mxCell id="gqLY5WaF7parTcAeaoHh-221" value="" style="ellipse;html=1;shape=endState;fillColor=#000000;strokeColor=#ff0000;" vertex="1" parent="1">
          <mxGeometry x="625" y="2760" width="30" height="30" as="geometry" />
        </mxCell>
        <mxCell id="gqLY5WaF7parTcAeaoHh-222" value="" style="edgeStyle=orthogonalEdgeStyle;html=1;verticalAlign=bottom;endArrow=open;endSize=8;strokeColor=#ff0000;rounded=0;exitX=0.5;exitY=0;exitDx=0;exitDy=0;entryX=0.5;entryY=1;entryDx=0;entryDy=0;" edge="1" parent="1" source="gqLY5WaF7parTcAeaoHh-206" target="gqLY5WaF7parTcAeaoHh-221">
          <mxGeometry relative="1" as="geometry">
            <mxPoint x="760" y="2830" as="targetPoint" />
            <mxPoint x="760" y="2900" as="sourcePoint" />
          </mxGeometry>
        </mxCell>
        <mxCell id="gqLY5WaF7parTcAeaoHh-223" value="Close the Game" style="text;html=1;align=center;verticalAlign=middle;whiteSpace=wrap;rounded=0;" vertex="1" parent="1">
          <mxGeometry x="580" y="2800" width="60" height="30" as="geometry" />
        </mxCell>
        <mxCell id="gqLY5WaF7parTcAeaoHh-233" value="Upgrades Menu" style="rounded=1;whiteSpace=wrap;html=1;arcSize=40;fontColor=#000000;fillColor=#ffffc0;strokeColor=#ff0000;" vertex="1" parent="1">
          <mxGeometry x="390" y="3010" width="120" height="40" as="geometry" />
        </mxCell>
        <mxCell id="gqLY5WaF7parTcAeaoHh-234" value="" style="edgeStyle=orthogonalEdgeStyle;html=1;verticalAlign=bottom;endArrow=open;endSize=8;strokeColor=#ff0000;rounded=0;exitX=0.25;exitY=1;exitDx=0;exitDy=0;entryX=0.5;entryY=0;entryDx=0;entryDy=0;" edge="1" parent="1" source="gqLY5WaF7parTcAeaoHh-206" target="gqLY5WaF7parTcAeaoHh-233">
          <mxGeometry relative="1" as="geometry">
            <mxPoint x="710" y="3210" as="targetPoint" />
            <mxPoint x="710" y="3090" as="sourcePoint" />
          </mxGeometry>
        </mxCell>
        <mxCell id="gqLY5WaF7parTcAeaoHh-235" value="Upgrades Open" style="text;html=1;align=center;verticalAlign=middle;whiteSpace=wrap;rounded=0;" vertex="1" parent="1">
          <mxGeometry x="495" y="2920" width="60" height="30" as="geometry" />
        </mxCell>
        <mxCell id="gqLY5WaF7parTcAeaoHh-236" value="" style="edgeStyle=orthogonalEdgeStyle;html=1;verticalAlign=bottom;endArrow=open;endSize=8;strokeColor=#ff0000;rounded=0;exitX=0.75;exitY=0;exitDx=0;exitDy=0;entryX=0.418;entryY=1.014;entryDx=0;entryDy=0;entryPerimeter=0;" edge="1" parent="1" source="gqLY5WaF7parTcAeaoHh-233" target="gqLY5WaF7parTcAeaoHh-206">
          <mxGeometry relative="1" as="geometry">
            <mxPoint x="750" y="2980" as="targetPoint" />
            <mxPoint x="750" y="3100" as="sourcePoint" />
            <Array as="points">
              <mxPoint x="480" y="2960" />
              <mxPoint x="630" y="2960" />
            </Array>
          </mxGeometry>
        </mxCell>
        <mxCell id="gqLY5WaF7parTcAeaoHh-237" value="Upgrades Close" style="text;html=1;align=center;verticalAlign=middle;whiteSpace=wrap;rounded=0;" vertex="1" parent="1">
          <mxGeometry x="500" y="2960" width="60" height="30" as="geometry" />
        </mxCell>
        <mxCell id="gqLY5WaF7parTcAeaoHh-244" value="Waiting for World update (upgrade)" style="rounded=1;whiteSpace=wrap;html=1;arcSize=40;fontColor=#000000;fillColor=#ffffc0;strokeColor=#ff0000;" vertex="1" parent="1">
          <mxGeometry x="555" y="3010" width="70" height="70" as="geometry" />
        </mxCell>
        <mxCell id="gqLY5WaF7parTcAeaoHh-245" value="" style="edgeStyle=orthogonalEdgeStyle;html=1;verticalAlign=bottom;endArrow=open;endSize=8;strokeColor=#ff0000;rounded=0;exitX=1;exitY=0.5;exitDx=0;exitDy=0;entryX=0.017;entryY=0.282;entryDx=0;entryDy=0;entryPerimeter=0;" edge="1" parent="1" source="gqLY5WaF7parTcAeaoHh-233" target="gqLY5WaF7parTcAeaoHh-244">
          <mxGeometry relative="1" as="geometry">
            <mxPoint x="510" y="3190" as="targetPoint" />
            <mxPoint x="510" y="3070" as="sourcePoint" />
          </mxGeometry>
        </mxCell>
        <mxCell id="gqLY5WaF7parTcAeaoHh-246" value="Event Sent" style="text;html=1;align=center;verticalAlign=middle;whiteSpace=wrap;rounded=0;" vertex="1" parent="1">
          <mxGeometry x="500" y="3000" width="60" height="30" as="geometry" />
        </mxCell>
        <mxCell id="gqLY5WaF7parTcAeaoHh-247" value="" style="edgeStyle=orthogonalEdgeStyle;html=1;verticalAlign=bottom;endArrow=open;endSize=8;strokeColor=#ff0000;rounded=0;exitX=0;exitY=0.75;exitDx=0;exitDy=0;entryX=0.75;entryY=1;entryDx=0;entryDy=0;" edge="1" parent="1" source="gqLY5WaF7parTcAeaoHh-244" target="gqLY5WaF7parTcAeaoHh-233">
          <mxGeometry relative="1" as="geometry">
            <mxPoint x="520" y="3180" as="targetPoint" />
            <mxPoint x="520" y="3060" as="sourcePoint" />
          </mxGeometry>
        </mxCell>
        <mxCell id="gqLY5WaF7parTcAeaoHh-248" value="World Updated" style="text;html=1;align=center;verticalAlign=middle;whiteSpace=wrap;rounded=0;" vertex="1" parent="1">
          <mxGeometry x="500" y="3060" width="60" height="30" as="geometry" />
        </mxCell>
      </root>
    </mxGraphModel>
  </diagram>
</mxfile>
